<?xml version="1.0" encoding="UTF-8" standalone="no"?>
<!DOCTYPE svg PUBLIC "-//W3C//DTD SVG 1.1//EN">
<svg width="100%" height="100%" viewBox="0 0 119 119" version="1.1" xmlns="http://www.w3.org/2000/svg"
     xml:space="preserve"
     style="fill-rule:evenodd;clip-rule:evenodd;stroke-linejoin:round;stroke-miterlimit:2;">
    <g transform="matrix(0.661761,0,0,0.661761,435.356,-960.034)">
        <path d="M-560.702,1451.08C-565.98,1450.61 -571.29,1450.61 -576.568,1451.08C-579.006,1457.65 -581.248,1464.3 -583.293,1471.01C-585.7,1471.52 -588.079,1472.15 -590.42,1472.92C-595.546,1468.13 -600.808,1463.5 -606.208,1459.02C-611.014,1461.25 -615.613,1463.91 -619.948,1466.95C-618.772,1473.87 -617.392,1480.74 -615.808,1487.57C-617.637,1489.22 -619.379,1490.96 -621.026,1492.79C-627.859,1491.21 -634.732,1489.83 -641.646,1488.65C-644.693,1492.99 -647.348,1497.59 -649.579,1502.39C-645.103,1507.79 -640.471,1513.05 -635.684,1518.18C-636.444,1520.52 -637.082,1522.9 -637.594,1525.31C-644.302,1527.35 -650.945,1529.59 -657.521,1532.03C-657.992,1537.31 -657.992,1542.62 -657.521,1547.9C-650.945,1550.34 -644.302,1552.58 -637.594,1554.62C-637.082,1557.03 -636.444,1559.41 -635.684,1561.75C-640.471,1566.88 -645.103,1572.14 -649.579,1577.54C-647.348,1582.34 -644.693,1586.94 -641.646,1591.28C-634.732,1590.1 -627.859,1588.72 -621.026,1587.14C-619.379,1588.97 -617.637,1590.71 -615.808,1592.36C-617.392,1599.19 -618.772,1606.06 -619.948,1612.98C-615.613,1616.02 -611.014,1618.68 -606.208,1620.91C-600.808,1616.43 -595.546,1611.8 -590.42,1607.01C-588.079,1607.77 -585.7,1608.41 -583.293,1608.92C-581.248,1615.63 -579.006,1622.27 -576.568,1628.85C-571.29,1629.32 -565.98,1629.32 -560.702,1628.85C-558.264,1622.27 -556.022,1615.63 -553.977,1608.92C-551.57,1608.41 -549.191,1607.77 -546.85,1607.01C-541.724,1611.8 -536.462,1616.43 -531.062,1620.91C-526.256,1618.68 -521.657,1616.02 -517.322,1612.98C-518.498,1606.06 -519.878,1599.19 -521.462,1592.36C-519.633,1590.71 -517.891,1588.97 -516.244,1587.14C-509.412,1588.72 -502.538,1590.1 -495.624,1591.28C-492.577,1586.94 -489.922,1582.34 -487.691,1577.54C-492.167,1572.14 -496.799,1566.88 -501.586,1561.75C-500.826,1559.41 -500.188,1557.03 -499.677,1554.62C-492.968,1552.58 -486.325,1550.34 -479.749,1547.9C-479.278,1542.62 -479.278,1537.31 -479.749,1532.03C-486.325,1529.59 -492.968,1527.35 -499.677,1525.31C-500.188,1522.9 -500.826,1520.52 -501.586,1518.18C-496.799,1513.05 -492.167,1507.79 -487.691,1502.39C-489.922,1497.59 -492.577,1492.99 -495.624,1488.65C-502.538,1489.83 -509.412,1491.21 -516.244,1492.79C-517.891,1490.96 -519.633,1489.22 -521.462,1487.57C-519.878,1480.74 -518.498,1473.87 -517.322,1466.95C-521.657,1463.91 -526.256,1461.25 -531.062,1459.02C-536.462,1463.5 -541.724,1468.13 -546.85,1472.92C-549.191,1472.15 -551.57,1471.52 -553.977,1471.01C-556.022,1464.3 -558.264,1457.65 -560.702,1451.08ZM-568.635,1506.05C-549.919,1506.05 -534.724,1521.25 -534.724,1539.96C-534.724,1558.68 -549.919,1573.88 -568.635,1573.88C-587.351,1573.88 -602.546,1558.68 -602.546,1539.96C-602.546,1521.25 -587.351,1506.05 -568.635,1506.05Z"/>
    </g>
</svg>
