<?xml version="1.0" encoding="UTF-8" standalone="no"?>
<!DOCTYPE svg PUBLIC "-//W3C//DTD SVG 1.1//EN">
<svg class="credit_icon" viewBox="0 0 119 119" version="1.1" xmlns="http://www.w3.org/2000/svg"
     xml:space="preserve"
     style="fill-rule:evenodd;clip-rule:evenodd;stroke-linejoin:round;stroke-miterlimit:2;">
    <g transform="matrix(0.24716,0,0,0.24716,-6.30796e-05,-3.15398e-05)">
        <g>
            <path d="M153.602,221.868L58.251,221.868L114.452,165.667C120.9,158.792 120.553,147.991 113.677,141.544C107.108,135.384 96.884,135.388 90.32,141.552L4.986,226.885C0.115,231.767 -1.339,239.1 1.3,245.471C2.153,247.544 3.405,249.429 4.986,251.018L90.319,336.351C97.099,342.899 107.903,342.711 114.451,335.931C120.839,329.317 120.839,318.832 114.451,312.218L58.25,256L153.602,256L153.602,221.868Z"
                  style="fill-rule:nonzero;"/>
        </g>
        <g transform="matrix(1,0,0,1,5.68434e-14,-0.0005)">
            <path d="M426.669,17.068L204.803,17.068C176.526,17.068 153.603,39.991 153.603,68.268L153.603,221.868L341.336,221.868C350.762,221.868 358.403,229.509 358.403,238.935C358.403,248.361 350.762,256.002 341.336,256.002L153.602,256.002L153.602,409.602C153.602,437.879 176.525,460.802 204.802,460.802L426.669,460.802C454.946,460.802 477.869,437.879 477.869,409.602L477.869,68.268C477.869,39.991 454.946,17.068 426.669,17.068Z"
                  style="fill-rule:nonzero;"/>
        </g>
    </g>
</svg>
