<?xml version="1.0" encoding="UTF-8" standalone="no"?>
<!DOCTYPE svg PUBLIC "-//W3C//DTD SVG 1.1//EN" "http://www.w3.org/Graphics/SVG/1.1/DTD/svg11.dtd">
<svg id="svg_icon" viewBox="0 0 237 237" version="1.1" xmlns="http://www.w3.org/2000/svg" xml:space="preserve"
     style="fill-rule:evenodd;clip-rule:evenodd;stroke-linejoin:round;stroke-miterlimit:2;">
    <g transform="matrix(1,0,0,1,-127.685,-153.999)">
        <g id="Back">
            <path d="M245.795,172.109C300.987,172.109 345.795,216.917 345.795,272.109C345.795,327.3 300.987,372.109 245.795,372.109C190.604,372.109 145.795,327.3 145.795,272.109C145.795,216.917 190.604,172.109 245.795,172.109ZM247.293,253.975C246.468,253.975 245.368,254.03 245.368,254.08L245.368,230.48L195.368,268.225L245.368,305.48L245.368,279.609C245.368,279.234 249.306,278.975 251.618,278.975C272.143,278.975 289.168,293.663 294.606,313.738C295.539,310.021 296.222,306.155 296.222,302.155C296.222,275.546 274.389,253.975 247.293,253.975Z"/>
        </g>
    </g>
</svg>
