<svg id="Layer_5" enable-background="new 0 0 64 64" height="512" viewBox="0 0 64 64" width="512" xmlns="http://www.w3.org/2000/svg"><g><path d="m57 4c0-.551-.449-1-1-1h-52c-.551 0-1 .449-1 1v9h54zm-47 6h-4v-4h4zm8 0h-4v-4h4zm8 0h-4v-4h4z"/><path d="m36 19h-28c-.551 0-1 .449-1 1v16c0 .551.449 1 1 1h15.303l5.865 3.91c.333.221.832-.045.832-.445v-3.465h6c.551 0 1-.449 1-1v-16c0-.551-.449-1-1-1zm-19 10h2v2h-2zm-2-6c-1.103 0-2 .897-2 2 0 1.2-.542 2.266-1.382 3 .84.734 1.382 1.8 1.382 3 0 1.103.897 2 2 2v2c-2.206 0-4-1.794-4-4 0-1.103-.897-2-2-2v-2c1.103 0 2-.897 2-2 0-2.206 1.794-4 4-4zm12 12h-10v-2h10zm0-4h-6v-2h6zm0-4h-10v-2h10zm0-4h-10v-2h10zm8 6c-1.103 0-2 .897-2 2 0 2.206-1.794 4-4 4v-2c1.103 0 2-.897 2-2 0-1.2.542-2.266 1.382-3-.84-.734-1.382-1.8-1.382-3 0-1.103-.897-2-2-2v-2c2.206 0 4 1.794 4 4 0 1.103.897 2 2 2z"/><path d="m39.762 45.985c.051-.13.104-.261.161-.39.119-.274.105-.592-.038-.874-.601-1.188-.372-2.62.57-3.561l.704-.704c.941-.942 2.372-1.171 3.561-.57.282.143.6.156.873.038.129-.056.26-.11.391-.161.28-.109.497-.345.596-.646.417-1.267 1.591-2.117 2.922-2.117h.996c1.331 0 2.505.85 2.921 2.114.099.303.317.54.596.648.131.051.262.105.39.161.275.119.593.105.874-.038.546-.276 1.143-.369 1.721-.306v-24.579h-54v31c0 .551.449 1 1 1h34.292c.248-.176.522-.32.822-.419.303-.099.54-.316.648-.596zm15.238-14.985h-4v-2h4zm0-8h-10v-2h10zm-14-6h14v2h-14zm0 4h2v2h-2zm0 4h14v2h-14zm8 4v2h-2v-2zm-8 0h4v2h-4zm0 4h14v2h-14zm-32 12h-2v-2h2zm4 0h-2v-2h2zm4 0h-2v-2h2zm4 0h-2v-2h2zm18-9c0 1.654-1.346 3-3 3h-4v1.465c0 1.398-1.137 2.535-2.535 2.535-.502 0-.988-.147-1.406-.426l-5.362-3.574h-14.697c-1.654 0-3-1.346-3-3v-16c0-1.654 1.346-3 3-3h28c1.654 0 3 1.346 3 3z"/><path d="m60.261 48.481c-.873-.287-1.561-.932-1.887-1.771-.042-.109-.086-.215-.132-.321-.356-.819-.324-1.756.087-2.571.21-.415.13-.916-.199-1.245l-.704-.704c-.33-.329-.831-.41-1.245-.199-.815.411-1.754.443-2.572.087-.105-.045-.212-.089-.319-.131-.839-.326-1.484-1.014-1.771-1.886-.145-.443-.556-.74-1.021-.74h-.996c-.465 0-.875.297-1.021.739-.287.873-.933 1.561-1.772 1.887-.107.042-.214.085-.32.131-.818.356-1.756.325-2.571-.087-.416-.211-.916-.13-1.245.199l-.704.704c-.329.329-.409.83-.199 1.245.412.815.443 1.752.087 2.572-.045.104-.089.211-.131.318-.327.84-1.015 1.486-1.887 1.772-.442.146-.739.557-.739 1.022v.996c0 .465.297.875.739 1.021.873.287 1.561.932 1.887 1.771.042.109.086.215.132.321.356.819.324 1.756-.087 2.571-.21.415-.13.915.199 1.244l.705.705c.33.33.829.409 1.244.199.439-.222.914-.333 1.386-.333.405 0 .808.082 1.186.247.104.045.211.089.318.131.84.327 1.486 1.014 1.772 1.886.146.443.556.74 1.021.74h.996c.465 0 .875-.297 1.021-.739.287-.873.932-1.561 1.771-1.887.109-.042.215-.086.321-.132.818-.354 1.757-.324 2.571.087.414.21.914.13 1.244-.199l.705-.705c.329-.329.409-.829.199-1.244-.412-.815-.443-1.752-.087-2.572.045-.104.089-.211.131-.318.327-.84 1.014-1.486 1.886-1.772.443-.146.74-.556.74-1.021v-.996c0-.466-.297-.877-.739-1.022zm-12.554 3.812-1.414 1.414-3.707-3.707 3.707-3.707 1.414 1.414-2.293 2.293zm2.283 4.849-1.979-.283 2-14 1.979.283zm3.717-3.435-1.414-1.414 2.293-2.293-2.293-2.293 1.414-1.414 3.707 3.707z"/></g></svg>