<?xml version="1.0" encoding="UTF-8" standalone="no"?>
<!DOCTYPE svg PUBLIC "-//W3C//DTD SVG 1.1//EN" "http://www.w3.org/Graphics/SVG/1.1/DTD/svg11.dtd">
<svg xmlns:serif="http://www.serif.com/" width="100%" height="100%" viewBox="0 0 119 119" version="1.1"
     xmlns="http://www.w3.org/2000/svg" xml:space="preserve"
     style="fill-rule:evenodd;clip-rule:evenodd;stroke-linejoin:round;stroke-miterlimit:2;">
    <g id="Musical-Note" serif:id="Musical Note"
       transform="matrix(4.72441,3.49413e-31,-5.82355e-32,4.72441,-915.354,-226.772)">
        <path d="M214.042,48.035L203.982,50.295C203.442,50.416 203,50.97 203,51.525L203,53.015L202.984,53.015L202.984,65.597C202.984,66.146 202.546,66.694 202.012,66.817L199.251,67.444C198.013,67.725 197,68.997 197,70.271L197,70.495C197,71.879 198.118,73 199.498,73L200.459,73C202.37,73 203.919,71.447 203.919,69.531L203.919,60.845L203.936,60.845L203.936,56.91C203.936,56.472 204.286,56.042 204.714,55.956L213.861,54.097C214.219,54.025 214.554,54.299 214.554,54.666L214.554,62.591C214.554,63.14 214.117,63.687 213.582,63.808L210.737,64.447C209.507,64.722 208.5,65.984 208.5,67.249L208.5,67.481C208.5,68.87 209.623,69.995 211.007,69.995L212.005,69.995C213.936,69.995 215.5,68.426 215.5,66.492L215.5,50.007L215.498,50.007L215.498,49.207C215.498,48.491 215.005,48 214.351,48C214.252,48 214.148,48.012 214.042,48.035Z"/>
    </g>
</svg>
